<?xml version="1.0" encoding="utf-8"?>
<!-- Generator: Adobe Illustrator 23.0.6, SVG Export Plug-In . SVG Version: 6.00 Build 0)  -->
<svg version="1.1" id="Layer_1" xmlns="http://www.w3.org/2000/svg" xmlns:xlink="http://www.w3.org/1999/xlink" x="0px" y="0px"
	 viewBox="0 0 133.8 13.8" style="enable-background:new 0 0 133.8 13.8;" xml:space="preserve">
<style type="text/css">
	.st0{fill:#00A4FF;}
</style>
<g>
	<path d="M5.8,3.1C6.3,3.5,6.5,4,6.5,4.7c0,0.8-0.3,1.4-0.8,1.9C5.2,7,4.4,7.2,3.5,7.2H1L0.7,11H0l0.7-8.5h3.2
		C4.7,2.5,5.3,2.7,5.8,3.1z M5.2,6.1c0.4-0.3,0.6-0.8,0.6-1.4c0-0.5-0.2-0.9-0.5-1.2C4.9,3.3,4.4,3.1,3.8,3.1H1.4L1.1,6.6h2.4
		C4.2,6.6,4.8,6.4,5.2,6.1z"/>
	<path d="M8.5,10.8c-0.4-0.2-0.7-0.6-0.9-1S7.2,8.8,7.2,8.2c0-0.7,0.1-1.2,0.4-1.8c0.2-0.5,0.6-0.9,1-1.2C9,5,9.5,4.9,10.1,4.9
		c0.5,0,1,0.1,1.4,0.4c0.4,0.2,0.7,0.6,0.9,1c0.2,0.4,0.3,0.9,0.3,1.5c0,0.7-0.1,1.2-0.4,1.8s-0.6,0.9-1,1.2
		c-0.4,0.3-0.9,0.4-1.5,0.4C9.4,11.1,8.9,11,8.5,10.8z M11.5,9.8c0.4-0.5,0.5-1.2,0.5-2c0-0.7-0.2-1.3-0.5-1.6
		c-0.3-0.4-0.8-0.6-1.4-0.6c-0.6,0-1.2,0.2-1.5,0.7C8.2,6.7,8,7.4,8,8.3C8,9,8.1,9.5,8.5,9.9c0.3,0.4,0.8,0.6,1.5,0.6
		S11.1,10.2,11.5,9.8z"/>
	<path d="M23.4,5l-2.7,6H20L18.6,6L16.3,11h-0.8l-1.7-6h0.7l1.4,5.1L18.3,5H19l1.4,5.1L22.6,5H23.4z"/>
	<path d="M24.9,7.9c0,0.1,0,0.2,0,0.3c0,0.7,0.2,1.2,0.5,1.6c0.3,0.4,0.8,0.6,1.5,0.6c0.4,0,0.7-0.1,1.1-0.2s0.7-0.3,1-0.5l0.2,0.6
		c-0.2,0.2-0.6,0.4-1,0.6c-0.4,0.1-0.9,0.2-1.3,0.2c-0.9,0-1.5-0.3-2-0.8c-0.5-0.5-0.7-1.2-0.7-2.1c0-0.7,0.1-1.2,0.4-1.8
		c0.2-0.5,0.6-0.9,1-1.2c0.4-0.3,1-0.4,1.6-0.4c0.8,0,1.3,0.2,1.8,0.6c0.4,0.4,0.7,1.1,0.7,1.9c0,0.2,0,0.4,0,0.6H24.9z M25.6,6
		c-0.4,0.3-0.6,0.8-0.7,1.4h3.9c0-0.6-0.1-1.1-0.4-1.4s-0.7-0.5-1.3-0.5C26.5,5.5,26,5.6,25.6,6z"/>
	<path d="M34.3,4.9l-0.1,0.6c-0.2,0-0.3,0-0.5,0c-0.6,0-1.1,0.2-1.4,0.6S31.7,7,31.7,7.5L31.4,11h-0.7L31,6.7c0-0.5,0-0.9,0-1.2
		c0-0.2,0-0.4,0-0.5h0.7l0,1c0.2-0.4,0.5-0.6,0.8-0.8C33,5,33.3,4.9,33.8,4.9C34,4.9,34.1,4.9,34.3,4.9z"/>
	<path d="M35.3,7.9c0,0.1,0,0.2,0,0.3c0,0.7,0.2,1.2,0.5,1.6c0.3,0.4,0.8,0.6,1.5,0.6c0.4,0,0.7-0.1,1.1-0.2s0.7-0.3,1-0.5l0.2,0.6
		c-0.2,0.2-0.6,0.4-1,0.6c-0.4,0.1-0.9,0.2-1.3,0.2c-0.9,0-1.5-0.3-2-0.8c-0.5-0.5-0.7-1.2-0.7-2.1c0-0.7,0.1-1.2,0.4-1.8
		c0.2-0.5,0.6-0.9,1-1.2c0.4-0.3,1-0.4,1.6-0.4c0.8,0,1.3,0.2,1.8,0.6c0.4,0.4,0.7,1.1,0.7,1.9c0,0.2,0,0.4,0,0.6H35.3z M36.1,6
		c-0.4,0.3-0.6,0.8-0.7,1.4h3.9c0-0.6-0.1-1.1-0.4-1.4s-0.7-0.5-1.3-0.5C37,5.5,36.5,5.6,36.1,6z"/>
	<path d="M46.9,2.2L46.2,11h-0.7l0.1-1c-0.2,0.4-0.5,0.6-0.8,0.8c-0.4,0.2-0.8,0.3-1.2,0.3c-0.5,0-1-0.1-1.3-0.4
		c-0.4-0.2-0.7-0.6-0.9-1C41.1,9.3,41,8.8,41,8.2c0-0.7,0.1-1.2,0.4-1.8s0.6-0.9,1-1.2c0.4-0.3,0.9-0.4,1.5-0.4
		c0.5,0,0.9,0.1,1.3,0.3c0.4,0.2,0.6,0.5,0.8,0.9l0.3-3.9H46.9z M45.2,9.8c0.4-0.5,0.6-1.2,0.6-2c0-0.7-0.2-1.3-0.5-1.7
		c-0.3-0.4-0.8-0.6-1.4-0.6c-0.6,0-1.2,0.2-1.5,0.7c-0.4,0.5-0.6,1.1-0.6,2c0,0.7,0.2,1.3,0.5,1.7s0.8,0.6,1.4,0.6
		C44.3,10.5,44.8,10.2,45.2,9.8z"/>
	<path d="M55.7,5.2c0.4,0.2,0.7,0.6,0.9,1c0.2,0.4,0.3,1,0.3,1.5c0,0.7-0.1,1.2-0.4,1.8s-0.6,0.9-1,1.2c-0.4,0.3-0.9,0.4-1.5,0.4
		c-0.5,0-0.9-0.1-1.3-0.3c-0.4-0.2-0.6-0.5-0.8-0.9L51.9,11h-0.7l0.7-8.8h0.7L52.3,6c0.2-0.3,0.5-0.6,0.8-0.8
		c0.4-0.2,0.8-0.3,1.2-0.3C54.8,4.9,55.3,5,55.7,5.2z M55.6,9.8c0.4-0.5,0.6-1.1,0.6-2c0-0.7-0.2-1.3-0.5-1.7
		c-0.3-0.4-0.8-0.6-1.4-0.6c-0.6,0-1.2,0.2-1.5,0.7c-0.4,0.5-0.6,1.2-0.6,2c0,0.7,0.2,1.3,0.5,1.7c0.3,0.4,0.8,0.6,1.5,0.6
		S55.2,10.2,55.6,9.8z"/>
	<path d="M63.7,5l-3.4,6.6c-0.3,0.7-0.7,1.1-1.2,1.5c-0.4,0.3-1,0.5-1.6,0.6l-0.1-0.6c0.6-0.1,1-0.3,1.3-0.5c0.3-0.2,0.6-0.6,0.8-1
		l0.3-0.6l-2.1-6h0.7l1.8,5.3L63,5H63.7z"/>
</g>
<g>
	<path class="st0" d="M70,10.5c-0.8-0.5-1.4-1.1-1.8-1.9c-0.4-0.8-0.6-1.8-0.6-2.9c0-1.1,0.2-2.1,0.6-2.9c0.4-0.8,1-1.5,1.8-1.9
		c0.8-0.4,1.7-0.7,2.8-0.7c0.7,0,1.4,0.1,2,0.3c0.6,0.2,1.2,0.5,1.6,0.9l-0.6,1.4c-0.5-0.4-1-0.7-1.4-0.8c-0.5-0.2-1-0.3-1.5-0.3
		c-1,0-1.8,0.3-2.4,1c-0.6,0.7-0.8,1.6-0.8,2.9c0,1.3,0.3,2.2,0.8,2.9c0.6,0.7,1.4,1,2.4,1c0.5,0,1-0.1,1.5-0.3
		c0.5-0.2,1-0.5,1.4-0.8l0.6,1.4c-0.4,0.4-0.9,0.7-1.6,0.9c-0.6,0.2-1.3,0.3-2,0.3C71.7,11.2,70.8,11,70,10.5z"/>
	<path class="st0" d="M85.1,3.5V11h-1.8V9.8c-0.2,0.4-0.6,0.7-1,1c-0.4,0.2-0.9,0.4-1.5,0.4c-0.7,0-1.2-0.2-1.8-0.5
		c-0.5-0.3-0.9-0.8-1.2-1.4c-0.3-0.6-0.4-1.3-0.4-2.1c0-0.8,0.1-1.5,0.4-2.1c0.3-0.6,0.7-1.1,1.2-1.4c0.5-0.3,1.1-0.5,1.7-0.5
		c0.5,0,1,0.1,1.5,0.4c0.4,0.2,0.8,0.6,1,1V3.5H85.1z M82.8,9c0.3-0.4,0.5-1,0.5-1.8c0-0.8-0.2-1.4-0.5-1.8C82.4,5,82,4.7,81.3,4.7
		c-0.6,0-1.1,0.2-1.4,0.7c-0.3,0.4-0.5,1.1-0.5,1.9c0,0.8,0.2,1.4,0.5,1.8c0.3,0.4,0.8,0.6,1.5,0.6C82,9.7,82.4,9.5,82.8,9z"/>
	<path class="st0" d="M92,3.4l0,1.7c-0.3-0.1-0.6-0.2-1-0.2c-0.6,0-1.1,0.2-1.5,0.6S89,6.3,89,6.9V11h-1.9V5.6c0-0.8,0-1.5-0.1-2.1
		h1.8L89,4.8c0.2-0.5,0.5-0.9,0.9-1.1c0.4-0.3,0.9-0.4,1.4-0.4C91.5,3.3,91.8,3.3,92,3.4z"/>
	<path class="st0" d="M99.5,7.4h-5.2c0,0.8,0.2,1.4,0.6,1.8c0.4,0.4,0.9,0.6,1.6,0.6c0.8,0,1.6-0.3,2.3-0.8l0.5,1.3
		c-0.4,0.3-0.8,0.5-1.3,0.7s-1.1,0.3-1.6,0.3c-1.2,0-2.2-0.4-2.9-1.1c-0.7-0.7-1.1-1.7-1.1-2.9c0-0.8,0.2-1.5,0.5-2.1
		c0.3-0.6,0.7-1.1,1.3-1.4c0.6-0.3,1.2-0.5,1.9-0.5c1,0,1.9,0.3,2.5,1c0.6,0.7,0.9,1.6,0.9,2.8V7.4z M95,5.1
		c-0.3,0.3-0.5,0.7-0.6,1.3h3.5c-0.1-0.6-0.2-1-0.5-1.3s-0.7-0.4-1.2-0.4S95.3,4.8,95,5.1z"/>
	<path class="st0" d="M108.4,0v11h-1.8V9.8c-0.2,0.4-0.6,0.7-1,1c-0.4,0.2-0.9,0.4-1.5,0.4c-0.6,0-1.2-0.2-1.7-0.5
		c-0.5-0.3-0.9-0.8-1.2-1.4c-0.3-0.6-0.4-1.3-0.4-2.1s0.1-1.5,0.4-2.1c0.3-0.6,0.7-1,1.2-1.4c0.5-0.3,1.1-0.5,1.8-0.5
		c0.5,0,1,0.1,1.4,0.3c0.4,0.2,0.8,0.5,1,1V0H108.4z M106,9c0.3-0.4,0.5-1,0.5-1.8c0-0.8-0.2-1.4-0.5-1.8c-0.3-0.4-0.8-0.6-1.4-0.6
		c-0.6,0-1.1,0.2-1.5,0.6c-0.3,0.4-0.5,1-0.5,1.8c0,0.8,0.2,1.4,0.5,1.8c0.3,0.4,0.8,0.7,1.4,0.7C105.2,9.7,105.7,9.5,106,9z"/>
	<path class="st0" d="M111.8,10.7c-0.6-0.3-1-0.8-1.4-1.4C110.1,8.7,110,8,110,7.2c0-0.8,0.2-1.5,0.5-2.1c0.3-0.6,0.8-1.1,1.4-1.4
		c0.6-0.3,1.3-0.5,2-0.5c0.8,0,1.4,0.2,2,0.5c0.6,0.3,1,0.8,1.3,1.4c0.3,0.6,0.5,1.3,0.5,2.1c0,0.8-0.2,1.5-0.5,2.1
		c-0.3,0.6-0.8,1.1-1.3,1.4s-1.2,0.5-2,0.5C113.1,11.2,112.4,11,111.8,10.7z M115.3,9.1c0.3-0.4,0.5-1,0.5-1.9
		c0-0.8-0.2-1.4-0.5-1.9c-0.3-0.4-0.8-0.6-1.4-0.6c-0.6,0-1.1,0.2-1.5,0.6c-0.3,0.4-0.5,1-0.5,1.9c0,0.8,0.2,1.4,0.5,1.9
		c0.3,0.4,0.8,0.6,1.4,0.6C114.5,9.7,115,9.5,115.3,9.1z"/>
	<path class="st0" d="M126.3,3.5L123,11h-1.6l-3.3-7.6h2l2.2,5.4l2.2-5.4H126.3z"/>
	<path class="st0" d="M133.8,7.4h-5.2c0,0.8,0.2,1.4,0.6,1.8c0.4,0.4,0.9,0.6,1.6,0.6c0.8,0,1.6-0.3,2.3-0.8l0.5,1.3
		c-0.4,0.3-0.8,0.5-1.3,0.7s-1.1,0.3-1.6,0.3c-1.2,0-2.2-0.4-2.9-1.1c-0.7-0.7-1.1-1.7-1.1-2.9c0-0.8,0.2-1.5,0.5-2.1
		c0.3-0.6,0.7-1.1,1.3-1.4c0.6-0.3,1.2-0.5,1.9-0.5c1,0,1.9,0.3,2.5,1c0.6,0.7,0.9,1.6,0.9,2.8V7.4z M129.2,5.1
		c-0.3,0.3-0.5,0.7-0.6,1.3h3.5c-0.1-0.6-0.2-1-0.5-1.3c-0.3-0.3-0.7-0.4-1.2-0.4S129.6,4.8,129.2,5.1z"/>
</g>
</svg>
