<?xml version="1.0" encoding="utf-8"?>
<!-- Generator: Adobe Illustrator 23.0.6, SVG Export Plug-In . SVG Version: 6.00 Build 0)  -->
<svg version="1.1" id="Layer_1" xmlns="http://www.w3.org/2000/svg" xmlns:xlink="http://www.w3.org/1999/xlink" x="0px" y="0px"
	 viewBox="0 0 185.1 11.4" style="enable-background:new 0 0 185.1 11.4;" xml:space="preserve">
<style type="text/css">
	.st0{fill:#00A4FF;}
</style>
<g>
	<path class="st0" d="M6.5,9.4c0.3,0.3,0.6,0.5,0.9,0.8l-1,0.8c-0.4-0.3-0.7-0.6-1.1-1C5,9.7,4.7,9.3,4.4,8.9c-0.1,0-0.2,0-0.3,0
		c-0.8,0-1.5-0.2-2.2-0.5S0.8,7.5,0.5,6.9C0.2,6.2,0,5.4,0,4.5c0-0.9,0.2-1.7,0.5-2.3C0.8,1.5,1.3,1,1.9,0.7
		c0.6-0.4,1.3-0.5,2.2-0.5s1.6,0.2,2.2,0.5C6.8,1,7.3,1.5,7.6,2.2C8,2.9,8.1,3.6,8.1,4.5c0,1-0.2,1.8-0.6,2.5
		C7.2,7.7,6.6,8.2,5.9,8.6C6.1,8.9,6.3,9.2,6.5,9.4z M2.2,6.9c0.4,0.5,1.1,0.8,1.8,0.8s1.4-0.3,1.8-0.8s0.7-1.3,0.7-2.3
		c0-1-0.2-1.8-0.7-2.3S4.9,1.4,4.1,1.4S2.7,1.7,2.2,2.2C1.8,2.7,1.6,3.5,1.6,4.5C1.6,5.5,1.8,6.3,2.2,6.9z"/>
	<path class="st0" d="M14.9,2.7v6.1h-1.5V7.9c-0.2,0.3-0.4,0.6-0.8,0.8S12,8.9,11.5,8.9c-1.5,0-2.2-0.8-2.2-2.5V2.7h1.5v3.7
		c0,0.4,0.1,0.8,0.3,1c0.2,0.2,0.5,0.3,0.8,0.3c0.4,0,0.8-0.1,1.1-0.4c0.3-0.3,0.4-0.7,0.4-1.2V2.7H14.9z"/>
	<path class="st0" d="M21.6,5.9h-4.2c0,0.6,0.2,1.1,0.5,1.4c0.3,0.3,0.7,0.5,1.3,0.5c0.7,0,1.3-0.2,1.8-0.6l0.4,1
		c-0.3,0.2-0.6,0.4-1.1,0.6c-0.4,0.1-0.8,0.2-1.3,0.2c-1,0-1.8-0.3-2.3-0.8c-0.6-0.6-0.9-1.3-0.9-2.3c0-0.6,0.1-1.2,0.4-1.6
		s0.6-0.9,1-1.1c0.4-0.3,1-0.4,1.5-0.4c0.8,0,1.5,0.3,2,0.8c0.5,0.5,0.7,1.3,0.7,2.2V5.9z M17.9,4c-0.3,0.2-0.4,0.6-0.5,1h2.8
		c0-0.5-0.2-0.8-0.4-1c-0.2-0.2-0.5-0.3-0.9-0.3C18.5,3.7,18.2,3.8,17.9,4z"/>
	<path class="st0" d="M22.2,8.1l0.4-1.1c0.6,0.5,1.4,0.7,2.2,0.7c0.4,0,0.6-0.1,0.8-0.2C25.9,7.5,26,7.3,26,7.1
		c0-0.2-0.1-0.3-0.2-0.4s-0.4-0.2-0.7-0.3l-1-0.2c-1.1-0.2-1.7-0.8-1.7-1.7c0-0.4,0.1-0.7,0.3-1c0.2-0.3,0.5-0.5,0.9-0.7
		c0.4-0.2,0.8-0.2,1.3-0.2c0.4,0,0.8,0.1,1.2,0.2c0.4,0.1,0.8,0.3,1.1,0.6l-0.4,1c-0.6-0.4-1.2-0.7-1.9-0.7c-0.3,0-0.6,0.1-0.8,0.2
		c-0.2,0.1-0.3,0.3-0.3,0.5c0,0.2,0.1,0.3,0.2,0.4C24.1,5,24.3,5,24.6,5.1l1,0.2c0.6,0.1,1,0.3,1.3,0.6s0.4,0.7,0.4,1.1
		c0,0.6-0.2,1-0.7,1.3c-0.4,0.3-1.1,0.5-1.8,0.5C23.7,8.9,22.9,8.6,22.2,8.1z"/>
	<path class="st0" d="M30.2,3.9v2.7c0,0.7,0.3,1.1,1,1.1c0.2,0,0.4,0,0.6-0.1v1.2c-0.3,0.1-0.6,0.1-1,0.1c-0.7,0-1.2-0.2-1.6-0.6
		c-0.4-0.4-0.6-0.9-0.6-1.7V3.9h-1.2V2.7h1.2V1.3l1.5-0.5v2h1.6v1.1H30.2z"/>
	<path class="st0" d="M34.2,0v1.5h-1.7V0H34.2z M32.6,2.7h1.5v6.1h-1.5V2.7z"/>
	<path class="st0" d="M36.6,8.5c-0.5-0.3-0.8-0.6-1.1-1.1c-0.3-0.5-0.4-1-0.4-1.7c0-0.6,0.1-1.2,0.4-1.7s0.6-0.8,1.1-1.1
		c0.5-0.3,1-0.4,1.6-0.4c0.6,0,1.1,0.1,1.6,0.4c0.5,0.3,0.8,0.6,1.1,1.1s0.4,1,0.4,1.7c0,0.6-0.1,1.2-0.4,1.7
		c-0.3,0.5-0.6,0.8-1.1,1.1c-0.5,0.3-1,0.4-1.6,0.4C37.7,8.9,37.1,8.8,36.6,8.5z M39.4,7.2c0.3-0.3,0.4-0.8,0.4-1.5
		c0-0.6-0.1-1.1-0.4-1.5c-0.3-0.3-0.7-0.5-1.2-0.5c-0.5,0-0.9,0.2-1.2,0.5c-0.3,0.3-0.4,0.8-0.4,1.5c0,0.7,0.1,1.2,0.4,1.5
		c0.3,0.3,0.7,0.5,1.2,0.5C38.8,7.7,39.2,7.6,39.4,7.2z"/>
	<path class="st0" d="M48,5.1v3.7h-1.5V5.2c0-0.5-0.1-0.8-0.3-1.1c-0.2-0.2-0.5-0.3-0.9-0.3c-0.5,0-0.8,0.1-1.1,0.4
		c-0.3,0.3-0.4,0.7-0.4,1.2v3.4h-1.5V4.5c0-0.6,0-1.2-0.1-1.7h1.4l0.1,1c0.2-0.4,0.5-0.7,0.8-0.9c0.4-0.2,0.8-0.3,1.2-0.3
		C47.3,2.6,48,3.4,48,5.1z"/>
	<path class="st0" d="M55,5.1v3.7h-1.5V5.2c0-0.5-0.1-0.8-0.3-1.1c-0.2-0.2-0.5-0.3-0.9-0.3c-0.5,0-0.8,0.1-1.1,0.4
		c-0.3,0.3-0.4,0.7-0.4,1.2v3.4h-1.5V4.5c0-0.6,0-1.2-0.1-1.7h1.4l0.1,1c0.2-0.4,0.5-0.7,0.8-0.9c0.4-0.2,0.8-0.3,1.2-0.3
		C54.3,2.6,55,3.4,55,5.1z"/>
	<path class="st0" d="M62.2,2.7v6.1h-1.5v-1c-0.2,0.3-0.4,0.6-0.8,0.8c-0.3,0.2-0.7,0.3-1.2,0.3c-0.5,0-1-0.1-1.4-0.4
		c-0.4-0.3-0.7-0.6-0.9-1.1S56,6.4,56,5.8s0.1-1.2,0.3-1.7c0.2-0.5,0.5-0.9,1-1.1c0.4-0.3,0.9-0.4,1.4-0.4c0.4,0,0.8,0.1,1.2,0.3
		c0.3,0.2,0.6,0.5,0.8,0.8V2.7H62.2z M60.3,7.2c0.3-0.3,0.4-0.8,0.4-1.5c0-0.6-0.1-1.1-0.4-1.5s-0.7-0.5-1.2-0.5
		c-0.5,0-0.9,0.2-1.2,0.5c-0.3,0.4-0.4,0.9-0.4,1.5c0,0.6,0.1,1.1,0.4,1.4c0.3,0.3,0.7,0.5,1.2,0.5C59.6,7.7,60,7.6,60.3,7.2z"/>
	<path class="st0" d="M65.1,0v1.5h-1.7V0H65.1z M63.6,2.7h1.5v6.1h-1.5V2.7z"/>
	<path class="st0" d="M70.3,2.7l0,1.4c-0.3-0.1-0.5-0.2-0.8-0.2c-0.5,0-0.9,0.1-1.2,0.4c-0.3,0.3-0.4,0.7-0.4,1.2v3.3h-1.5V4.5
		c0-0.6,0-1.2-0.1-1.7h1.4l0.1,1.1c0.2-0.4,0.4-0.7,0.7-0.9s0.7-0.3,1.1-0.3C70,2.6,70.2,2.6,70.3,2.7z"/>
	<path class="st0" d="M76.1,5.9h-4.2c0,0.6,0.2,1.1,0.5,1.4c0.3,0.3,0.7,0.5,1.3,0.5c0.7,0,1.3-0.2,1.8-0.6l0.4,1
		c-0.3,0.2-0.6,0.4-1.1,0.6c-0.4,0.1-0.8,0.2-1.3,0.2c-1,0-1.8-0.3-2.3-0.8c-0.6-0.6-0.9-1.3-0.9-2.3c0-0.6,0.1-1.2,0.4-1.6
		s0.6-0.9,1-1.1c0.4-0.3,1-0.4,1.5-0.4c0.8,0,1.5,0.3,2,0.8c0.5,0.5,0.7,1.3,0.7,2.2V5.9z M72.5,4c-0.3,0.2-0.4,0.6-0.5,1h2.8
		c0-0.5-0.2-0.8-0.4-1c-0.2-0.2-0.5-0.3-0.9-0.3C73,3.7,72.7,3.8,72.5,4z"/>
	<path class="st0" d="M84.3,8.8h-1.6L81.6,6c-0.1-0.3-0.2-0.4-0.4-0.6c-0.2-0.1-0.5-0.2-0.8-0.2h-1.5v3.6h-1.5V0.3h3.7
		c1,0,1.7,0.2,2.2,0.6c0.5,0.4,0.8,1,0.8,1.8c0,0.6-0.1,1-0.4,1.4c-0.3,0.4-0.7,0.7-1.3,0.8c0.5,0.1,0.9,0.5,1.1,1.1L84.3,8.8z
		 M80.7,4.1c0.6,0,1-0.1,1.3-0.3c0.3-0.2,0.4-0.5,0.4-1c0-0.4-0.1-0.8-0.4-1s-0.7-0.3-1.3-0.3h-1.9v2.6H80.7z"/>
	<path class="st0" d="M90.6,5.9h-4.2c0,0.6,0.2,1.1,0.5,1.4c0.3,0.3,0.7,0.5,1.3,0.5c0.7,0,1.3-0.2,1.8-0.6l0.4,1
		c-0.3,0.2-0.6,0.4-1.1,0.6c-0.4,0.1-0.8,0.2-1.3,0.2c-1,0-1.8-0.3-2.3-0.8C85.3,7.5,85,6.7,85,5.8c0-0.6,0.1-1.2,0.4-1.6
		s0.6-0.9,1-1.1c0.4-0.3,1-0.4,1.5-0.4c0.8,0,1.5,0.3,2,0.8c0.5,0.5,0.7,1.3,0.7,2.2V5.9z M87,4c-0.3,0.2-0.4,0.6-0.5,1h2.8
		c0-0.5-0.2-0.8-0.4-1c-0.2-0.2-0.5-0.3-0.9-0.3C87.6,3.7,87.2,3.8,87,4z"/>
	<path class="st0" d="M91.3,8.1l0.4-1.1c0.6,0.5,1.4,0.7,2.2,0.7c0.4,0,0.6-0.1,0.8-0.2C94.9,7.5,95,7.3,95,7.1
		c0-0.2-0.1-0.3-0.2-0.4s-0.4-0.2-0.7-0.3l-1-0.2c-1.1-0.2-1.7-0.8-1.7-1.7c0-0.4,0.1-0.7,0.3-1C92,3.2,92.3,3,92.7,2.8
		C93,2.7,93.5,2.6,94,2.6c0.4,0,0.8,0.1,1.2,0.2c0.4,0.1,0.8,0.3,1.1,0.6l-0.4,1c-0.6-0.4-1.2-0.7-1.9-0.7c-0.3,0-0.6,0.1-0.8,0.2
		C93,4,92.9,4.2,92.9,4.4c0,0.2,0.1,0.3,0.2,0.4C93.1,5,93.3,5,93.6,5.1l1,0.2c0.6,0.1,1,0.3,1.3,0.6s0.4,0.7,0.4,1.1
		c0,0.6-0.2,1-0.7,1.3c-0.4,0.3-1.1,0.5-1.8,0.5C92.8,8.9,91.9,8.6,91.3,8.1z"/>
	<path class="st0" d="M102.3,3c0.4,0.3,0.7,0.6,0.9,1.1c0.2,0.5,0.3,1,0.3,1.7s-0.1,1.2-0.3,1.6s-0.5,0.8-0.9,1.1
		c-0.4,0.3-0.9,0.4-1.4,0.4c-0.4,0-0.8-0.1-1.2-0.3c-0.3-0.2-0.6-0.5-0.8-0.8v3.6h-1.5V4.5c0-0.6,0-1.2-0.1-1.7h1.4l0.1,1
		c0.2-0.4,0.4-0.7,0.8-0.9s0.8-0.3,1.2-0.3C101.4,2.6,101.9,2.7,102.3,3z M101.6,7.2c0.3-0.3,0.4-0.8,0.4-1.4c0-0.6-0.1-1.1-0.4-1.5
		s-0.7-0.5-1.2-0.5c-0.5,0-0.9,0.2-1.2,0.5c-0.3,0.3-0.4,0.8-0.4,1.5c0,0.6,0.1,1.1,0.4,1.5c0.3,0.3,0.7,0.5,1.2,0.5
		C101,7.7,101.4,7.6,101.6,7.2z"/>
	<path class="st0" d="M105.7,8.5c-0.5-0.3-0.8-0.6-1.1-1.1c-0.3-0.5-0.4-1-0.4-1.7c0-0.6,0.1-1.2,0.4-1.7s0.6-0.8,1.1-1.1
		c0.5-0.3,1-0.4,1.6-0.4c0.6,0,1.1,0.1,1.6,0.4c0.5,0.3,0.8,0.6,1.1,1.1s0.4,1,0.4,1.7c0,0.6-0.1,1.2-0.4,1.7
		c-0.3,0.5-0.6,0.8-1.1,1.1c-0.5,0.3-1,0.4-1.6,0.4C106.8,8.9,106.2,8.8,105.7,8.5z M108.5,7.2c0.3-0.3,0.4-0.8,0.4-1.5
		c0-0.6-0.1-1.1-0.4-1.5c-0.3-0.3-0.7-0.5-1.2-0.5c-0.5,0-0.9,0.2-1.2,0.5c-0.3,0.3-0.4,0.8-0.4,1.5c0,0.7,0.1,1.2,0.4,1.5
		c0.3,0.3,0.7,0.5,1.2,0.5C107.9,7.7,108.3,7.6,108.5,7.2z"/>
	<path class="st0" d="M117.1,5.1v3.7h-1.5V5.2c0-0.5-0.1-0.8-0.3-1.1c-0.2-0.2-0.5-0.3-0.9-0.3c-0.5,0-0.8,0.1-1.1,0.4
		c-0.3,0.3-0.4,0.7-0.4,1.2v3.4h-1.5V4.5c0-0.6,0-1.2-0.1-1.7h1.4l0.1,1c0.2-0.4,0.5-0.7,0.8-0.9c0.4-0.2,0.8-0.3,1.2-0.3
		C116.4,2.6,117.1,3.4,117.1,5.1z"/>
	<path class="st0" d="M118.1,8.1l0.4-1.1c0.6,0.5,1.4,0.7,2.2,0.7c0.4,0,0.6-0.1,0.8-0.2c0.2-0.1,0.3-0.3,0.3-0.5
		c0-0.2-0.1-0.3-0.2-0.4s-0.4-0.2-0.7-0.3l-1-0.2c-1.1-0.2-1.7-0.8-1.7-1.7c0-0.4,0.1-0.7,0.3-1c0.2-0.3,0.5-0.5,0.9-0.7
		c0.4-0.2,0.8-0.2,1.3-0.2c0.4,0,0.8,0.1,1.2,0.2c0.4,0.1,0.8,0.3,1.1,0.6l-0.4,1c-0.6-0.4-1.2-0.7-1.9-0.7c-0.3,0-0.6,0.1-0.8,0.2
		c-0.2,0.1-0.3,0.3-0.3,0.5c0,0.2,0.1,0.3,0.2,0.4c0.1,0.1,0.3,0.2,0.6,0.3l1,0.2c0.6,0.1,1,0.3,1.3,0.6s0.4,0.7,0.4,1.1
		c0,0.6-0.2,1-0.7,1.3c-0.4,0.3-1.1,0.5-1.8,0.5C119.6,8.9,118.7,8.6,118.1,8.1z"/>
	<path class="st0" d="M129.6,5.9h-4.2c0,0.6,0.2,1.1,0.5,1.4c0.3,0.3,0.7,0.5,1.3,0.5c0.7,0,1.3-0.2,1.8-0.6l0.4,1
		c-0.3,0.2-0.6,0.4-1.1,0.6c-0.4,0.1-0.8,0.2-1.3,0.2c-1,0-1.8-0.3-2.3-0.8c-0.6-0.6-0.9-1.3-0.9-2.3c0-0.6,0.1-1.2,0.4-1.6
		s0.6-0.9,1-1.1c0.4-0.3,1-0.4,1.5-0.4c0.8,0,1.5,0.3,2,0.8c0.5,0.5,0.7,1.3,0.7,2.2V5.9z M125.9,4c-0.3,0.2-0.4,0.6-0.5,1h2.8
		c0-0.5-0.2-0.8-0.4-1c-0.2-0.2-0.5-0.3-0.9-0.3C126.5,3.7,126.2,3.8,125.9,4z"/>
</g>
<g>
	<path d="M134.2,0.3h5.1v0.6H135v3.2h4.2v0.7H135v4h-0.7V0.3z"/>
	<path d="M141.4,8.5c-0.4-0.3-0.7-0.6-1-1.1c-0.2-0.5-0.3-1-0.3-1.6s0.1-1.2,0.3-1.6c0.2-0.5,0.6-0.8,1-1.1c0.4-0.3,0.9-0.4,1.5-0.4
		c0.5,0,1,0.1,1.4,0.4c0.4,0.3,0.7,0.6,1,1.1c0.2,0.5,0.3,1,0.3,1.6s-0.1,1.2-0.3,1.6c-0.2,0.5-0.6,0.8-1,1.1
		c-0.4,0.3-0.9,0.4-1.4,0.4C142.3,8.9,141.8,8.8,141.4,8.5z M144.3,7.6c0.3-0.4,0.5-1,0.5-1.8c0-0.8-0.2-1.4-0.5-1.8
		c-0.4-0.4-0.8-0.7-1.5-0.7c-0.6,0-1.1,0.2-1.5,0.7c-0.4,0.4-0.5,1-0.5,1.8c0,0.8,0.2,1.4,0.5,1.8c0.3,0.4,0.8,0.6,1.5,0.6
		C143.5,8.2,144,8,144.3,7.6z"/>
	<path d="M150.1,2.7l0,0.7c-0.2,0-0.3,0-0.6,0c-0.6,0-1.1,0.2-1.4,0.6c-0.3,0.4-0.5,0.9-0.5,1.4v3.5H147V4.5c0-0.6,0-1.2-0.1-1.7
		h0.7l0.1,1.1c0.2-0.4,0.4-0.7,0.7-0.9c0.3-0.2,0.7-0.3,1.2-0.3C149.8,2.7,149.9,2.7,150.1,2.7z"/>
	<path d="M159.4,5v3.8h-0.7V5c0-0.6-0.1-1.1-0.3-1.3c-0.2-0.3-0.6-0.4-1-0.4c-0.6,0-1,0.2-1.3,0.6c-0.3,0.4-0.5,0.9-0.5,1.5v3.5
		h-0.7V5c0-0.6-0.1-1.1-0.3-1.3c-0.2-0.3-0.6-0.4-1-0.4c-0.5,0-1,0.2-1.3,0.6c-0.3,0.4-0.5,0.9-0.5,1.5v3.5h-0.7V4.5
		c0-0.6,0-1.2-0.1-1.7h0.7l0.1,1.1c0.2-0.4,0.4-0.7,0.8-0.9c0.3-0.2,0.7-0.3,1.2-0.3c1,0,1.6,0.4,1.9,1.2c0.2-0.4,0.4-0.7,0.8-0.9
		c0.4-0.2,0.8-0.3,1.2-0.3C158.7,2.7,159.4,3.4,159.4,5z"/>
	<path d="M166.2,2.8v6h-0.7V7.7c-0.2,0.4-0.4,0.7-0.8,0.9s-0.8,0.3-1.3,0.3c-0.5,0-1-0.1-1.4-0.4s-0.7-0.6-0.9-1.1
		c-0.2-0.5-0.3-1-0.3-1.6s0.1-1.2,0.3-1.6c0.2-0.5,0.5-0.8,0.9-1.1c0.4-0.3,0.9-0.4,1.4-0.4c0.5,0,0.9,0.1,1.3,0.3
		c0.4,0.2,0.6,0.5,0.8,0.9V2.8H166.2z M165,7.6c0.3-0.4,0.5-1,0.5-1.8c0-0.8-0.2-1.4-0.5-1.8c-0.3-0.4-0.8-0.6-1.5-0.6
		c-0.6,0-1.1,0.2-1.5,0.7c-0.4,0.4-0.5,1.1-0.5,1.8c0,0.8,0.2,1.4,0.5,1.8c0.4,0.4,0.8,0.6,1.5,0.6C164.1,8.2,164.6,8,165,7.6z"/>
	<path d="M169,3.4V7c0,0.5,0.1,0.8,0.3,1s0.5,0.3,0.8,0.3c0.2,0,0.4,0,0.6-0.1v0.7c-0.3,0.1-0.5,0.1-0.8,0.1c-0.5,0-0.9-0.1-1.2-0.4
		c-0.3-0.3-0.4-0.7-0.4-1.3V3.4h-1.2V2.8h1.2V1.2l0.7-0.3v1.9h1.8v0.6H169z"/>
	<path d="M172.9,3.4V7c0,0.5,0.1,0.8,0.3,1s0.5,0.3,0.8,0.3c0.2,0,0.4,0,0.6-0.1v0.7c-0.3,0.1-0.5,0.1-0.8,0.1
		c-0.5,0-0.9-0.1-1.2-0.4c-0.3-0.3-0.4-0.7-0.4-1.3V3.4H171V2.8h1.2V1.2l0.7-0.3v1.9h1.8v0.6H172.9z"/>
	<path d="M176,5.7L176,5.7c0,0.8,0.2,1.5,0.6,1.9c0.4,0.4,0.9,0.6,1.6,0.6c0.7,0,1.4-0.2,2-0.7l0.3,0.6c-0.3,0.2-0.6,0.4-1,0.6
		c-0.4,0.1-0.8,0.2-1.3,0.2c-0.9,0-1.6-0.3-2.2-0.8c-0.5-0.6-0.8-1.3-0.8-2.3c0-0.6,0.1-1.2,0.4-1.6c0.2-0.5,0.6-0.8,1-1.1
		c0.4-0.3,0.9-0.4,1.5-0.4c0.8,0,1.4,0.3,1.9,0.8c0.4,0.5,0.7,1.2,0.7,2.1v0.2H176z M176.7,3.8c-0.3,0.3-0.6,0.8-0.6,1.4h3.8
		c0-0.6-0.2-1.1-0.5-1.4c-0.3-0.3-0.7-0.5-1.3-0.5C177.5,3.3,177.1,3.4,176.7,3.8z"/>
	<path d="M185.1,2.7l0,0.7c-0.2,0-0.3,0-0.6,0c-0.6,0-1.1,0.2-1.4,0.6c-0.3,0.4-0.5,0.9-0.5,1.4v3.5h-0.7V4.5c0-0.6,0-1.2-0.1-1.7
		h0.7l0.1,1.1c0.2-0.4,0.4-0.7,0.7-0.9c0.3-0.2,0.7-0.3,1.2-0.3C184.7,2.7,184.9,2.7,185.1,2.7z"/>
</g>
</svg>
